<svg xmlns="http://www.w3.org/2000/svg" xmlns:xlink="http://www.w3.org/1999/xlink" width="132" height="54" viewBox="0 0 132 54">
  <defs>
    <linearGradient id="linear-gradient" x1="0.5" x2="0.5" y2="1" gradientUnits="objectBoundingBox">
      <stop offset="0" stop-color="#ac77fc"/>
      <stop offset="1" stop-color="#7f03fb"/>
    </linearGradient>
  </defs>
  <g id="LOGO3" transform="translate(1 1)">
    <path id="_8665409_feather_pointed_icon" data-name="8665409_feather_pointed_icon" d="M27.719,14.737,20.63,17.6H26.4a23.577,23.577,0,0,1-1.581,2.629l-8.1,3.238h5.234c-3.627,3.221-8.807,4.91-16.165,3.228L1.623,30.862A1.467,1.467,0,0,1-.452,28.788L15.035,13.3a.966.966,0,0,0-.068-1.28.977.977,0,0,0-1.382,0l-10.3,10.3C.674,3.547,21.6.5,28.441.007a1.884,1.884,0,0,1,2.02,2.02A44.648,44.648,0,0,1,27.719,14.737Z" transform="translate(3.129 5.998)" fill="url(#linear-gradient)"/>
    <text id="aira" transform="translate(36.5)" fill="#171830" stroke="rgba(0,0,0,0)" stroke-width="1" font-size="36" font-family="Montserrat-Bold, Montserrat" font-weight="700"><tspan x="0" y="35">aira</tspan></text>
    <text id="inteligentna_rekrutacja_" data-name="inteligentna rekrutacja " transform="translate(0 36)" fill="#171830" stroke="rgba(0,0,0,0)" stroke-width="1" font-size="10" font-family="Montserrat-Medium, Montserrat" font-weight="500" letter-spacing="-0.05em"><tspan x="0" y="10">inteligentna rekrutacja </tspan></text>
  </g>
</svg>
